<svg width="63" height="17" viewBox="0 0 63 17" fill="none" xmlns="http://www.w3.org/2000/svg">
<path d="M16 8.5C16 12.6421 12.6421 16 8.5 16C4.35786 16 1 12.6421 1 8.5C1 4.35787 4.35786 1 8.5 1C12.6421 1 16 4.35787 16 8.5Z" fill="#FF5F57" stroke="#E24238"/>
<path d="M39 8.5C39 12.6421 35.6421 16 31.5 16C27.3579 16 24 12.6421 24 8.5C24 4.35787 27.3579 1 31.5 1C35.6421 1 39 4.35787 39 8.5Z" fill="#FEBC2E" stroke="#FAB520"/>
<path d="M62 8.5C62 12.6421 58.6421 16 54.5 16C50.3579 16 47 12.6421 47 8.5C47 4.35787 50.3579 1 54.5 1C58.6421 1 62 4.35787 62 8.5Z" fill="#28C840" stroke="#1EAA27"/>
</svg>
