<svg width="593" height="77" viewBox="0 0 593 77" fill="none" xmlns="http://www.w3.org/2000/svg">
<path d="M16 38.5C16 42.6421 12.6421 46 8.5 46C4.35786 46 1 42.6421 1 38.5C1 34.3579 4.35786 31 8.5 31C12.6421 31 16 34.3579 16 38.5Z" fill="#FF5F57" stroke="#E24238"/>
<path d="M39 38.5C39 42.6421 35.6421 46 31.5 46C27.3579 46 24 42.6421 24 38.5C24 34.3579 27.3579 31 31.5 31C35.6421 31 39 34.3579 39 38.5Z" fill="#FEBC2E" stroke="#FAB520"/>
<path d="M62 38.5C62 42.6421 58.6421 46 54.5 46C50.3579 46 47 42.6421 47 38.5C47 34.3579 50.3579 31 54.5 31C58.6421 31 62 34.3579 62 38.5Z" fill="#28C840" stroke="#1EAA27"/>
<path d="M104.591 62H92.5L108.205 15.4545H123.182L138.886 62H126.795L115.864 27.1818H115.5L104.591 62ZM102.977 43.6818H128.25V52.2273H102.977V43.6818ZM143.898 75.0909V27.0909H154.898V33.0682H155.239C155.693 32.0076 156.337 30.9848 157.17 30C158.019 29.0152 159.095 28.2121 160.398 27.5909C161.716 26.9545 163.292 26.6364 165.125 26.6364C167.549 26.6364 169.814 27.2727 171.92 28.5455C174.042 29.8182 175.754 31.7803 177.057 34.4318C178.36 37.0833 179.011 40.4621 179.011 44.5682C179.011 48.5227 178.383 51.8333 177.125 54.5C175.883 57.1667 174.201 59.1667 172.08 60.5C169.973 61.8333 167.633 62.5 165.057 62.5C163.299 62.5 161.777 62.2121 160.489 61.6364C159.201 61.0606 158.117 60.303 157.239 59.3636C156.375 58.4242 155.708 57.4167 155.239 56.3409H155.011V75.0909H143.898ZM154.784 44.5455C154.784 46.4242 155.034 48.0606 155.534 49.4545C156.049 50.8485 156.784 51.9318 157.739 52.7045C158.708 53.4621 159.867 53.8409 161.216 53.8409C162.58 53.8409 163.739 53.4621 164.693 52.7045C165.648 51.9318 166.367 50.8485 166.852 49.4545C167.352 48.0606 167.602 46.4242 167.602 44.5455C167.602 42.6667 167.352 41.0379 166.852 39.6591C166.367 38.2803 165.648 37.2121 164.693 36.4545C163.754 35.697 162.595 35.3182 161.216 35.3182C159.852 35.3182 158.693 35.6894 157.739 36.4318C156.784 37.1742 156.049 38.2348 155.534 39.6136C155.034 40.9924 154.784 42.6364 154.784 44.5455ZM204.54 27.0909V35.2727H182.517V27.0909H204.54ZM187.131 18.7273H198.244V51.0227C198.244 51.7045 198.35 52.2576 198.562 52.6818C198.79 53.0909 199.116 53.3864 199.54 53.5682C199.964 53.7348 200.472 53.8182 201.062 53.8182C201.487 53.8182 201.934 53.7803 202.403 53.7045C202.888 53.6136 203.252 53.5379 203.494 53.4773L205.176 61.5C204.646 61.6515 203.896 61.8409 202.926 62.0682C201.972 62.2955 200.828 62.4394 199.494 62.5C196.888 62.6212 194.653 62.3182 192.79 61.5909C190.941 60.8485 189.525 59.697 188.54 58.1364C187.57 56.5758 187.1 54.6136 187.131 52.25V18.7273ZM222.074 15.4545V62H210.96V15.4545H222.074ZM235.943 75.0909C234.61 75.0909 233.352 74.9848 232.17 74.7727C230.989 74.5758 229.973 74.3106 229.125 73.9773L231.58 65.9091C232.67 66.2727 233.655 66.4848 234.534 66.5455C235.428 66.6061 236.193 66.4621 236.83 66.1136C237.481 65.7803 237.981 65.1818 238.33 64.3182L238.761 63.2727L226.352 27.0909H237.989L244.42 52H244.784L251.307 27.0909H263.011L249.852 65.3409C249.216 67.25 248.314 68.9318 247.148 70.3864C245.996 71.8561 244.504 73.0076 242.67 73.8409C240.852 74.6742 238.61 75.0909 235.943 75.0909Z" fill="#FAFAFA"/>
<path d="M312.841 27.0909C312.568 24.7879 311.462 23 309.523 21.7273C307.583 20.4545 305.205 19.8182 302.386 19.8182C300.326 19.8182 298.523 20.1515 296.977 20.8182C295.447 21.4848 294.25 22.4015 293.386 23.5682C292.538 24.7348 292.114 26.0606 292.114 27.5455C292.114 28.7879 292.409 29.8561 293 30.75C293.606 31.6288 294.379 32.3636 295.318 32.9545C296.258 33.5303 297.242 34.0076 298.273 34.3864C299.303 34.75 300.25 35.0455 301.114 35.2727L305.841 36.5455C307.053 36.8636 308.402 37.303 309.886 37.8636C311.386 38.4242 312.818 39.1894 314.182 40.1591C315.561 41.1136 316.697 42.3409 317.591 43.8409C318.485 45.3409 318.932 47.1818 318.932 49.3636C318.932 51.8788 318.273 54.1515 316.955 56.1818C315.652 58.2121 313.742 59.8258 311.227 61.0227C308.727 62.2197 305.689 62.8182 302.114 62.8182C298.78 62.8182 295.894 62.2803 293.455 61.2045C291.03 60.1288 289.121 58.6288 287.727 56.7045C286.348 54.7803 285.568 52.5455 285.386 50H291.205C291.356 51.7576 291.947 53.2121 292.977 54.3636C294.023 55.5 295.341 56.3485 296.932 56.9091C298.538 57.4545 300.265 57.7273 302.114 57.7273C304.265 57.7273 306.197 57.3788 307.909 56.6818C309.621 55.9697 310.977 54.9848 311.977 53.7273C312.977 52.4545 313.477 50.9697 313.477 49.2727C313.477 47.7273 313.045 46.4697 312.182 45.5C311.318 44.5303 310.182 43.7424 308.773 43.1364C307.364 42.5303 305.841 42 304.205 41.5455L298.477 39.9091C294.841 38.8636 291.962 37.3712 289.841 35.4318C287.72 33.4924 286.659 30.9545 286.659 27.8182C286.659 25.2121 287.364 22.9394 288.773 21C290.197 19.0455 292.106 17.5303 294.5 16.4545C296.909 15.3636 299.598 14.8182 302.568 14.8182C305.568 14.8182 308.235 15.3561 310.568 16.4318C312.902 17.4924 314.75 18.947 316.114 20.7955C317.492 22.6439 318.22 24.7424 318.295 27.0909H312.841ZM342.653 27.0909V31.6364H324.562V27.0909H342.653ZM329.835 18.7273H335.199V52C335.199 53.5152 335.419 54.6515 335.858 55.4091C336.313 56.1515 336.888 56.6515 337.585 56.9091C338.297 57.1515 339.047 57.2727 339.835 57.2727C340.426 57.2727 340.911 57.2424 341.29 57.1818C341.669 57.1061 341.972 57.0455 342.199 57L343.29 61.8182C342.926 61.9545 342.419 62.0909 341.767 62.2273C341.116 62.3788 340.29 62.4545 339.29 62.4545C337.775 62.4545 336.29 62.1288 334.835 61.4773C333.396 60.8258 332.199 59.8333 331.244 58.5C330.305 57.1667 329.835 55.4848 329.835 53.4545V18.7273ZM360.994 62.8182C358.782 62.8182 356.775 62.4015 354.972 61.5682C353.169 60.7197 351.737 59.5 350.676 57.9091C349.616 56.303 349.085 54.3636 349.085 52.0909C349.085 50.0909 349.479 48.4697 350.267 47.2273C351.055 45.9697 352.108 44.9848 353.426 44.2727C354.744 43.5606 356.199 43.0303 357.79 42.6818C359.396 42.3182 361.009 42.0303 362.631 41.8182C364.752 41.5455 366.472 41.3409 367.79 41.2045C369.123 41.053 370.093 40.803 370.699 40.4545C371.32 40.1061 371.631 39.5 371.631 38.6364V38.4545C371.631 36.2121 371.017 34.4697 369.79 33.2273C368.578 31.9848 366.737 31.3636 364.267 31.3636C361.706 31.3636 359.699 31.9242 358.244 33.0455C356.79 34.1667 355.767 35.3636 355.176 36.6364L350.085 34.8182C350.994 32.697 352.206 31.0455 353.722 29.8636C355.252 28.6667 356.919 27.8333 358.722 27.3636C360.54 26.8788 362.328 26.6364 364.085 26.6364C365.206 26.6364 366.494 26.7727 367.949 27.0455C369.419 27.303 370.835 27.8409 372.199 28.6591C373.578 29.4773 374.722 30.7121 375.631 32.3636C376.54 34.0152 376.994 36.2273 376.994 39V62H371.631V57.2727H371.358C370.994 58.0303 370.388 58.8409 369.54 59.7045C368.691 60.5682 367.563 61.303 366.153 61.9091C364.744 62.5152 363.025 62.8182 360.994 62.8182ZM361.812 58C363.934 58 365.722 57.5833 367.176 56.75C368.646 55.9167 369.752 54.8409 370.494 53.5227C371.252 52.2045 371.631 50.8182 371.631 49.3636V44.4545C371.403 44.7273 370.903 44.9773 370.131 45.2045C369.373 45.4167 368.494 45.6061 367.494 45.7727C366.509 45.9242 365.547 46.0606 364.608 46.1818C363.684 46.2879 362.934 46.3788 362.358 46.4545C360.964 46.6364 359.661 46.9318 358.449 47.3409C357.252 47.7348 356.282 48.3333 355.54 49.1364C354.813 49.9242 354.449 51 354.449 52.3636C354.449 54.2273 355.138 55.6364 356.517 56.5909C357.911 57.5303 359.676 58 361.812 58ZM386.784 62V27.0909H391.966V32.3636H392.33C392.966 30.6364 394.117 29.2348 395.784 28.1591C397.451 27.0833 399.33 26.5455 401.42 26.5455C401.814 26.5455 402.307 26.553 402.898 26.5682C403.489 26.5833 403.936 26.6061 404.239 26.6364V32.0909C404.057 32.0455 403.64 31.9773 402.989 31.8864C402.352 31.7803 401.678 31.7273 400.966 31.7273C399.269 31.7273 397.754 32.0833 396.42 32.7955C395.102 33.4924 394.057 34.4621 393.284 35.7045C392.527 36.9318 392.148 38.3333 392.148 39.9091V62H386.784ZM427.966 27.0909V31.6364H409.875V27.0909H427.966ZM415.148 18.7273H420.511V52C420.511 53.5152 420.731 54.6515 421.17 55.4091C421.625 56.1515 422.201 56.6515 422.898 56.9091C423.61 57.1515 424.36 57.2727 425.148 57.2727C425.739 57.2727 426.223 57.2424 426.602 57.1818C426.981 57.1061 427.284 57.0455 427.511 57L428.602 61.8182C428.239 61.9545 427.731 62.0909 427.08 62.2273C426.428 62.3788 425.602 62.4545 424.602 62.4545C423.087 62.4545 421.602 62.1288 420.148 61.4773C418.708 60.8258 417.511 59.8333 416.557 58.5C415.617 57.1667 415.148 55.4848 415.148 53.4545V18.7273ZM450.295 62.7273C446.932 62.7273 444.03 61.9848 441.591 60.5C439.167 59 437.295 56.9091 435.977 54.2273C434.674 51.5303 434.023 48.3939 434.023 44.8182C434.023 41.2424 434.674 38.0909 435.977 35.3636C437.295 32.6212 439.129 30.4848 441.477 28.9545C443.841 27.4091 446.598 26.6364 449.75 26.6364C451.568 26.6364 453.364 26.9394 455.136 27.5455C456.909 28.1515 458.523 29.1364 459.977 30.5C461.432 31.8485 462.591 33.6364 463.455 35.8636C464.318 38.0909 464.75 40.8333 464.75 44.0909V46.3636H437.841V41.7273H459.295C459.295 39.7576 458.902 38 458.114 36.4545C457.341 34.9091 456.235 33.6894 454.795 32.7955C453.371 31.9015 451.689 31.4545 449.75 31.4545C447.614 31.4545 445.765 31.9848 444.205 33.0455C442.659 34.0909 441.47 35.4545 440.636 37.1364C439.803 38.8182 439.386 40.6212 439.386 42.5455V45.6364C439.386 48.2727 439.841 50.5076 440.75 52.3409C441.674 54.1591 442.955 55.5455 444.591 56.5C446.227 57.4394 448.129 57.9091 450.295 57.9091C451.705 57.9091 452.977 57.7121 454.114 57.3182C455.265 56.9091 456.258 56.303 457.091 55.5C457.924 54.6818 458.568 53.6667 459.023 52.4545L464.205 53.9091C463.659 55.6667 462.742 57.2121 461.455 58.5455C460.167 59.8636 458.576 60.8939 456.682 61.6364C454.788 62.3636 452.659 62.7273 450.295 62.7273ZM472.909 62V27.0909H478.091V32.3636H478.455C479.091 30.6364 480.242 29.2348 481.909 28.1591C483.576 27.0833 485.455 26.5455 487.545 26.5455C487.939 26.5455 488.432 26.553 489.023 26.5682C489.614 26.5833 490.061 26.6061 490.364 26.6364V32.0909C490.182 32.0455 489.765 31.9773 489.114 31.8864C488.477 31.7803 487.803 31.7273 487.091 31.7273C485.394 31.7273 483.879 32.0833 482.545 32.7955C481.227 33.4924 480.182 34.4621 479.409 35.7045C478.652 36.9318 478.273 38.3333 478.273 39.9091V62H472.909ZM515.449 62V15.4545H521.085V38.5455H521.631L542.54 15.4545H549.903L530.358 36.4545L549.903 62H543.085L526.903 40.3636L521.085 46.9091V62H515.449ZM558.659 62V27.0909H564.023V62H558.659ZM561.386 21.2727C560.341 21.2727 559.439 20.9167 558.682 20.2045C557.939 19.4924 557.568 18.6364 557.568 17.6364C557.568 16.6364 557.939 15.7803 558.682 15.0682C559.439 14.3561 560.341 14 561.386 14C562.432 14 563.326 14.3561 564.068 15.0682C564.826 15.7803 565.205 16.6364 565.205 17.6364C565.205 18.6364 564.826 19.4924 564.068 20.2045C563.326 20.9167 562.432 21.2727 561.386 21.2727ZM589.028 27.0909V31.6364H570.938V27.0909H589.028ZM576.21 18.7273H581.574V52C581.574 53.5152 581.794 54.6515 582.233 55.4091C582.688 56.1515 583.263 56.6515 583.96 56.9091C584.672 57.1515 585.422 57.2727 586.21 57.2727C586.801 57.2727 587.286 57.2424 587.665 57.1818C588.044 57.1061 588.347 57.0455 588.574 57L589.665 61.8182C589.301 61.9545 588.794 62.0909 588.142 62.2273C587.491 62.3788 586.665 62.4545 585.665 62.4545C584.15 62.4545 582.665 62.1288 581.21 61.4773C579.771 60.8258 578.574 59.8333 577.619 58.5C576.68 57.1667 576.21 55.4848 576.21 53.4545V18.7273Z" fill="#9F9FA9"/>
</svg>
