<svg width="583" height="77" viewBox="0 0 583 77" fill="none" xmlns="http://www.w3.org/2000/svg">
<path d="M94.5909 62H82.5L98.2045 15.4545H113.182L128.886 62H116.795L105.864 27.1818H105.5L94.5909 62ZM92.9773 43.6818H118.25V52.2273H92.9773V43.6818ZM133.898 75.0909V27.0909H144.898V33.0682H145.239C145.693 32.0076 146.337 30.9848 147.17 30C148.019 29.0152 149.095 28.2121 150.398 27.5909C151.716 26.9545 153.292 26.6364 155.125 26.6364C157.549 26.6364 159.814 27.2727 161.92 28.5455C164.042 29.8182 165.754 31.7803 167.057 34.4318C168.36 37.0833 169.011 40.4621 169.011 44.5682C169.011 48.5227 168.383 51.8333 167.125 54.5C165.883 57.1667 164.201 59.1667 162.08 60.5C159.973 61.8333 157.633 62.5 155.057 62.5C153.299 62.5 151.777 62.2121 150.489 61.6364C149.201 61.0606 148.117 60.303 147.239 59.3636C146.375 58.4242 145.708 57.4167 145.239 56.3409H145.011V75.0909H133.898ZM144.784 44.5455C144.784 46.4242 145.034 48.0606 145.534 49.4545C146.049 50.8485 146.784 51.9318 147.739 52.7045C148.708 53.4621 149.867 53.8409 151.216 53.8409C152.58 53.8409 153.739 53.4621 154.693 52.7045C155.648 51.9318 156.367 50.8485 156.852 49.4545C157.352 48.0606 157.602 46.4242 157.602 44.5455C157.602 42.6667 157.352 41.0379 156.852 39.6591C156.367 38.2803 155.648 37.2121 154.693 36.4545C153.754 35.697 152.595 35.3182 151.216 35.3182C149.852 35.3182 148.693 35.6894 147.739 36.4318C146.784 37.1742 146.049 38.2348 145.534 39.6136C145.034 40.9924 144.784 42.6364 144.784 44.5455ZM194.54 27.0909V35.2727H172.517V27.0909H194.54ZM177.131 18.7273H188.244V51.0227C188.244 51.7045 188.35 52.2576 188.562 52.6818C188.79 53.0909 189.116 53.3864 189.54 53.5682C189.964 53.7348 190.472 53.8182 191.062 53.8182C191.487 53.8182 191.934 53.7803 192.403 53.7045C192.888 53.6136 193.252 53.5379 193.494 53.4773L195.176 61.5C194.646 61.6515 193.896 61.8409 192.926 62.0682C191.972 62.2955 190.828 62.4394 189.494 62.5C186.888 62.6212 184.653 62.3182 182.79 61.5909C180.941 60.8485 179.525 59.697 178.54 58.1364C177.57 56.5758 177.1 54.6136 177.131 52.25V18.7273ZM212.074 15.4545V62H200.96V15.4545H212.074ZM225.943 75.0909C224.61 75.0909 223.352 74.9848 222.17 74.7727C220.989 74.5758 219.973 74.3106 219.125 73.9773L221.58 65.9091C222.67 66.2727 223.655 66.4848 224.534 66.5455C225.428 66.6061 226.193 66.4621 226.83 66.1136C227.481 65.7803 227.981 65.1818 228.33 64.3182L228.761 63.2727L216.352 27.0909H227.989L234.42 52H234.784L241.307 27.0909H253.011L239.852 65.3409C239.216 67.25 238.314 68.9318 237.148 70.3864C235.996 71.8561 234.504 73.0076 232.67 73.8409C230.852 74.6742 228.61 75.0909 225.943 75.0909Z" fill="#FAFAFA"/>
<path d="M302.841 27.0909C302.568 24.7879 301.462 23 299.523 21.7273C297.583 20.4545 295.205 19.8182 292.386 19.8182C290.326 19.8182 288.523 20.1515 286.977 20.8182C285.447 21.4848 284.25 22.4015 283.386 23.5682C282.538 24.7348 282.114 26.0606 282.114 27.5455C282.114 28.7879 282.409 29.8561 283 30.75C283.606 31.6288 284.379 32.3636 285.318 32.9545C286.258 33.5303 287.242 34.0076 288.273 34.3864C289.303 34.75 290.25 35.0455 291.114 35.2727L295.841 36.5455C297.053 36.8636 298.402 37.303 299.886 37.8636C301.386 38.4242 302.818 39.1894 304.182 40.1591C305.561 41.1136 306.697 42.3409 307.591 43.8409C308.485 45.3409 308.932 47.1818 308.932 49.3636C308.932 51.8788 308.273 54.1515 306.955 56.1818C305.652 58.2121 303.742 59.8258 301.227 61.0227C298.727 62.2197 295.689 62.8182 292.114 62.8182C288.78 62.8182 285.894 62.2803 283.455 61.2045C281.03 60.1288 279.121 58.6288 277.727 56.7045C276.348 54.7803 275.568 52.5455 275.386 50H281.205C281.356 51.7576 281.947 53.2121 282.977 54.3636C284.023 55.5 285.341 56.3485 286.932 56.9091C288.538 57.4545 290.265 57.7273 292.114 57.7273C294.265 57.7273 296.197 57.3788 297.909 56.6818C299.621 55.9697 300.977 54.9848 301.977 53.7273C302.977 52.4545 303.477 50.9697 303.477 49.2727C303.477 47.7273 303.045 46.4697 302.182 45.5C301.318 44.5303 300.182 43.7424 298.773 43.1364C297.364 42.5303 295.841 42 294.205 41.5455L288.477 39.9091C284.841 38.8636 281.962 37.3712 279.841 35.4318C277.72 33.4924 276.659 30.9545 276.659 27.8182C276.659 25.2121 277.364 22.9394 278.773 21C280.197 19.0455 282.106 17.5303 284.5 16.4545C286.909 15.3636 289.598 14.8182 292.568 14.8182C295.568 14.8182 298.235 15.3561 300.568 16.4318C302.902 17.4924 304.75 18.947 306.114 20.7955C307.492 22.6439 308.22 24.7424 308.295 27.0909H302.841ZM332.653 27.0909V31.6364H314.562V27.0909H332.653ZM319.835 18.7273H325.199V52C325.199 53.5152 325.419 54.6515 325.858 55.4091C326.313 56.1515 326.888 56.6515 327.585 56.9091C328.297 57.1515 329.047 57.2727 329.835 57.2727C330.426 57.2727 330.911 57.2424 331.29 57.1818C331.669 57.1061 331.972 57.0455 332.199 57L333.29 61.8182C332.926 61.9545 332.419 62.0909 331.767 62.2273C331.116 62.3788 330.29 62.4545 329.29 62.4545C327.775 62.4545 326.29 62.1288 324.835 61.4773C323.396 60.8258 322.199 59.8333 321.244 58.5C320.305 57.1667 319.835 55.4848 319.835 53.4545V18.7273ZM350.994 62.8182C348.782 62.8182 346.775 62.4015 344.972 61.5682C343.169 60.7197 341.737 59.5 340.676 57.9091C339.616 56.303 339.085 54.3636 339.085 52.0909C339.085 50.0909 339.479 48.4697 340.267 47.2273C341.055 45.9697 342.108 44.9848 343.426 44.2727C344.744 43.5606 346.199 43.0303 347.79 42.6818C349.396 42.3182 351.009 42.0303 352.631 41.8182C354.752 41.5455 356.472 41.3409 357.79 41.2045C359.123 41.053 360.093 40.803 360.699 40.4545C361.32 40.1061 361.631 39.5 361.631 38.6364V38.4545C361.631 36.2121 361.017 34.4697 359.79 33.2273C358.578 31.9848 356.737 31.3636 354.267 31.3636C351.706 31.3636 349.699 31.9242 348.244 33.0455C346.79 34.1667 345.767 35.3636 345.176 36.6364L340.085 34.8182C340.994 32.697 342.206 31.0455 343.722 29.8636C345.252 28.6667 346.919 27.8333 348.722 27.3636C350.54 26.8788 352.328 26.6364 354.085 26.6364C355.206 26.6364 356.494 26.7727 357.949 27.0455C359.419 27.303 360.835 27.8409 362.199 28.6591C363.578 29.4773 364.722 30.7121 365.631 32.3636C366.54 34.0152 366.994 36.2273 366.994 39V62H361.631V57.2727H361.358C360.994 58.0303 360.388 58.8409 359.54 59.7045C358.691 60.5682 357.563 61.303 356.153 61.9091C354.744 62.5152 353.025 62.8182 350.994 62.8182ZM351.812 58C353.934 58 355.722 57.5833 357.176 56.75C358.646 55.9167 359.752 54.8409 360.494 53.5227C361.252 52.2045 361.631 50.8182 361.631 49.3636V44.4545C361.403 44.7273 360.903 44.9773 360.131 45.2045C359.373 45.4167 358.494 45.6061 357.494 45.7727C356.509 45.9242 355.547 46.0606 354.608 46.1818C353.684 46.2879 352.934 46.3788 352.358 46.4545C350.964 46.6364 349.661 46.9318 348.449 47.3409C347.252 47.7348 346.282 48.3333 345.54 49.1364C344.813 49.9242 344.449 51 344.449 52.3636C344.449 54.2273 345.138 55.6364 346.517 56.5909C347.911 57.5303 349.676 58 351.812 58ZM376.784 62V27.0909H381.966V32.3636H382.33C382.966 30.6364 384.117 29.2348 385.784 28.1591C387.451 27.0833 389.33 26.5455 391.42 26.5455C391.814 26.5455 392.307 26.553 392.898 26.5682C393.489 26.5833 393.936 26.6061 394.239 26.6364V32.0909C394.057 32.0455 393.64 31.9773 392.989 31.8864C392.352 31.7803 391.678 31.7273 390.966 31.7273C389.269 31.7273 387.754 32.0833 386.42 32.7955C385.102 33.4924 384.057 34.4621 383.284 35.7045C382.527 36.9318 382.148 38.3333 382.148 39.9091V62H376.784ZM417.966 27.0909V31.6364H399.875V27.0909H417.966ZM405.148 18.7273H410.511V52C410.511 53.5152 410.731 54.6515 411.17 55.4091C411.625 56.1515 412.201 56.6515 412.898 56.9091C413.61 57.1515 414.36 57.2727 415.148 57.2727C415.739 57.2727 416.223 57.2424 416.602 57.1818C416.981 57.1061 417.284 57.0455 417.511 57L418.602 61.8182C418.239 61.9545 417.731 62.0909 417.08 62.2273C416.428 62.3788 415.602 62.4545 414.602 62.4545C413.087 62.4545 411.602 62.1288 410.148 61.4773C408.708 60.8258 407.511 59.8333 406.557 58.5C405.617 57.1667 405.148 55.4848 405.148 53.4545V18.7273ZM440.295 62.7273C436.932 62.7273 434.03 61.9848 431.591 60.5C429.167 59 427.295 56.9091 425.977 54.2273C424.674 51.5303 424.023 48.3939 424.023 44.8182C424.023 41.2424 424.674 38.0909 425.977 35.3636C427.295 32.6212 429.129 30.4848 431.477 28.9545C433.841 27.4091 436.598 26.6364 439.75 26.6364C441.568 26.6364 443.364 26.9394 445.136 27.5455C446.909 28.1515 448.523 29.1364 449.977 30.5C451.432 31.8485 452.591 33.6364 453.455 35.8636C454.318 38.0909 454.75 40.8333 454.75 44.0909V46.3636H427.841V41.7273H449.295C449.295 39.7576 448.902 38 448.114 36.4545C447.341 34.9091 446.235 33.6894 444.795 32.7955C443.371 31.9015 441.689 31.4545 439.75 31.4545C437.614 31.4545 435.765 31.9848 434.205 33.0455C432.659 34.0909 431.47 35.4545 430.636 37.1364C429.803 38.8182 429.386 40.6212 429.386 42.5455V45.6364C429.386 48.2727 429.841 50.5076 430.75 52.3409C431.674 54.1591 432.955 55.5455 434.591 56.5C436.227 57.4394 438.129 57.9091 440.295 57.9091C441.705 57.9091 442.977 57.7121 444.114 57.3182C445.265 56.9091 446.258 56.303 447.091 55.5C447.924 54.6818 448.568 53.6667 449.023 52.4545L454.205 53.9091C453.659 55.6667 452.742 57.2121 451.455 58.5455C450.167 59.8636 448.576 60.8939 446.682 61.6364C444.788 62.3636 442.659 62.7273 440.295 62.7273ZM462.909 62V27.0909H468.091V32.3636H468.455C469.091 30.6364 470.242 29.2348 471.909 28.1591C473.576 27.0833 475.455 26.5455 477.545 26.5455C477.939 26.5455 478.432 26.553 479.023 26.5682C479.614 26.5833 480.061 26.6061 480.364 26.6364V32.0909C480.182 32.0455 479.765 31.9773 479.114 31.8864C478.477 31.7803 477.803 31.7273 477.091 31.7273C475.394 31.7273 473.879 32.0833 472.545 32.7955C471.227 33.4924 470.182 34.4621 469.409 35.7045C468.652 36.9318 468.273 38.3333 468.273 39.9091V62H462.909ZM505.449 62V15.4545H511.085V38.5455H511.631L532.54 15.4545H539.903L520.358 36.4545L539.903 62H533.085L516.903 40.3636L511.085 46.9091V62H505.449ZM548.659 62V27.0909H554.023V62H548.659ZM551.386 21.2727C550.341 21.2727 549.439 20.9167 548.682 20.2045C547.939 19.4924 547.568 18.6364 547.568 17.6364C547.568 16.6364 547.939 15.7803 548.682 15.0682C549.439 14.3561 550.341 14 551.386 14C552.432 14 553.326 14.3561 554.068 15.0682C554.826 15.7803 555.205 16.6364 555.205 17.6364C555.205 18.6364 554.826 19.4924 554.068 20.2045C553.326 20.9167 552.432 21.2727 551.386 21.2727ZM579.028 27.0909V31.6364H560.938V27.0909H579.028ZM566.21 18.7273H571.574V52C571.574 53.5152 571.794 54.6515 572.233 55.4091C572.688 56.1515 573.263 56.6515 573.96 56.9091C574.672 57.1515 575.422 57.2727 576.21 57.2727C576.801 57.2727 577.286 57.2424 577.665 57.1818C578.044 57.1061 578.347 57.0455 578.574 57L579.665 61.8182C579.301 61.9545 578.794 62.0909 578.142 62.2273C577.491 62.3788 576.665 62.4545 575.665 62.4545C574.15 62.4545 572.665 62.1288 571.21 61.4773C569.771 60.8258 568.574 59.8333 567.619 58.5C566.68 57.1667 566.21 55.4848 566.21 53.4545V18.7273Z" fill="#9F9FA9"/>
<rect y="15" width="44" height="44" rx="22" fill="#3B5BEB"/>
</svg>
